<svg xmlns="http://www.w3.org/2000/svg" viewBox="0 0 1200 700">
  <defs>
    <linearGradient id="bg" x1="0" x2="1" y1="0" y2="1">
      <stop offset="0" stop-color="#07162A"/>
      <stop offset="1" stop-color="#040B15"/>
    </linearGradient>
    <linearGradient id="acc" x1="0" x2="1" y1="0" y2="0">
      <stop offset="0" stop-color="#1B5FA7"/>
      <stop offset="1" stop-color="#93C5FD"/>
    </linearGradient>
  </defs>
  <rect width="1200" height="700" fill="url(#bg)"/>
  <g opacity="0.35">
    <path d="M0 515H1200" stroke="#E7EEF8" stroke-opacity="0.10" stroke-width="2"/>
    <path d="M0 610H1200" stroke="#E7EEF8" stroke-opacity="0.06" stroke-width="2"/>
  </g>
  <g transform="translate(120 190)">
    <rect x="120" y="210" width="720" height="130" rx="26" fill="rgba(255,255,255,0.06)" stroke="rgba(255,255,255,0.14)"/>
    <rect x="530" y="120" width="260" height="110" rx="22" fill="rgba(255,255,255,0.06)" stroke="rgba(255,255,255,0.14)"/>
    <rect x="560" y="140" width="160" height="70" rx="14" fill="url(#acc)" opacity="0.85"/>
    <path d="M250 220c130-120 250-120 380 0" fill="none" stroke="rgba(231,238,248,0.25)" stroke-width="14" stroke-linecap="round"/>
    <path d="M220 275h340l-70 80H290z" fill="rgba(0,0,0,0.35)" stroke="rgba(255,255,255,0.18)" stroke-width="8"/>
    <circle cx="280" cy="360" r="55" fill="rgba(0,0,0,0.35)" stroke="rgba(255,255,255,0.18)" stroke-width="10"/>
    <circle cx="280" cy="360" r="20" fill="#0B2442" stroke="rgba(231,238,248,0.4)" stroke-width="8"/>
    <circle cx="520" cy="360" r="55" fill="rgba(0,0,0,0.35)" stroke="rgba(255,255,255,0.18)" stroke-width="10"/>
    <circle cx="520" cy="360" r="20" fill="#0B2442" stroke="rgba(231,238,248,0.4)" stroke-width="8"/>
  </g>
  <g font-family="Inter, Arial, sans-serif" fill="#E7EEF8">
    <text x="80" y="120" font-size="44" font-weight="700">Construction Machinery</text>
    <text x="80" y="165" font-size="22" opacity="0.85">Excavators • Loaders • Road Equipment • Spares</text>
  </g>
</svg>
