<svg xmlns="http://www.w3.org/2000/svg" viewBox="0 0 1200 700">
  <defs>
    <linearGradient id="bg" x1="0" x2="1" y1="0" y2="1">
      <stop offset="0" stop-color="#07162A"/>
      <stop offset="1" stop-color="#051025"/>
    </linearGradient>
    <linearGradient id="acc" x1="0" x2="1" y1="0" y2="0">
      <stop offset="0" stop-color="#1B5FA7"/>
      <stop offset="1" stop-color="#38BDF8"/>
    </linearGradient>
  </defs>
  <rect width="1200" height="700" fill="url(#bg)"/>
  <g opacity="0.35">
    <path d="M0 520H1200" stroke="#E7EEF8" stroke-opacity="0.12" stroke-width="2"/>
    <path d="M0 610H1200" stroke="#E7EEF8" stroke-opacity="0.07" stroke-width="2"/>
  </g>
  <g transform="translate(140 200)">
    <rect x="140" y="180" width="720" height="170" rx="26" fill="rgba(255,255,255,0.06)" stroke="rgba(255,255,255,0.14)"/>
    <rect x="220" y="120" width="260" height="80" rx="20" fill="url(#acc)" opacity="0.85"/>
    <rect x="520" y="120" width="260" height="80" rx="20" fill="rgba(255,255,255,0.06)" stroke="rgba(255,255,255,0.14)"/>
    <path d="M240 260h520" stroke="rgba(231,238,248,0.35)" stroke-width="10" stroke-linecap="round"/>
    <g fill="rgba(56,189,248,0.8)">
      <circle cx="320" cy="300" r="8"/>
      <circle cx="420" cy="300" r="8"/>
      <circle cx="520" cy="300" r="8"/>
      <circle cx="620" cy="300" r="8"/>
      <circle cx="720" cy="300" r="8"/>
    </g>
    <path d="M320 300c0 70 60 110 120 110s120-40 120-110" fill="none" stroke="rgba(56,189,248,0.35)" stroke-width="8" stroke-linecap="round"/>
  </g>
  <g font-family="Inter, Arial, sans-serif" fill="#E7EEF8">
    <text x="80" y="120" font-size="44" font-weight="700">Smart Drip Irrigation & Parts</text>
    <text x="80" y="165" font-size="22" opacity="0.85">Kits • Filters • Fertigation • Machinery Spare Parts</text>
  </g>
</svg>
