<svg xmlns="http://www.w3.org/2000/svg" viewBox="0 0 64 64">
  <defs>
    <linearGradient id="g" x1="0" x2="1" y1="0" y2="1">
      <stop offset="0" stop-color="#1B5FA7"/>
      <stop offset="1" stop-color="#3B82F6"/>
    </linearGradient>
  </defs>
  <rect x="4" y="4" width="56" height="56" rx="14" fill="#07162A"/>
  <g transform="translate(32 32)">
    <path fill="url(#g)" d="M0-18l4 2 4-2 4 7-3 3 1 4 4 1v8l-4 1-1 4 3 3-4 7-4-2-4 2-4-2-4 2-4-7 3-3-1-4-4-1v-8l4-1 1-4-3-3 4-7 4 2 4-2z"/>
    <circle r="8.5" fill="#0B2442"/>
  </g>
</svg>
