<svg xmlns="http://www.w3.org/2000/svg" viewBox="0 0 1400 800">
  <defs>
    <linearGradient id="bg" x1="0" x2="1" y1="0" y2="1">
      <stop offset="0" stop-color="#07162A"/>
      <stop offset="1" stop-color="#040B15"/>
    </linearGradient>
    <linearGradient id="acc" x1="0" x2="1" y1="0" y2="0">
      <stop offset="0" stop-color="#1B5FA7"/>
      <stop offset="1" stop-color="#60A5FA"/>
    </linearGradient>
    <radialGradient id="glow" cx="35%" cy="25%" r="60%">
      <stop offset="0" stop-color="#1B5FA7" stop-opacity="0.35"/>
      <stop offset="1" stop-color="#000" stop-opacity="0"/>
    </radialGradient>
  </defs>
  <rect width="1400" height="800" fill="url(#bg)"/>
  <rect width="1400" height="800" fill="url(#glow)"/>
  <g opacity="0.22">
    <path d="M0 160H1400M0 320H1400M0 480H1400M0 640H1400" stroke="#E7EEF8" stroke-width="2" stroke-opacity="0.35"/>
    <path d="M200 0V800M420 0V800M640 0V800M860 0V800M1080 0V800M1300 0V800" stroke="#E7EEF8" stroke-width="2" stroke-opacity="0.20"/>
  </g>
  <g transform="translate(180 210)">
    <rect x="0" y="220" width="880" height="160" rx="28" fill="rgba(255,255,255,0.06)" stroke="rgba(255,255,255,0.14)"/>
    <rect x="560" y="90" width="320" height="150" rx="24" fill="rgba(255,255,255,0.06)" stroke="rgba(255,255,255,0.14)"/>
    <rect x="610" y="120" width="220" height="90" rx="18" fill="url(#acc)" opacity="0.85"/>
    <rect x="120" y="140" width="240" height="90" rx="18" fill="rgba(27,95,167,0.25)" stroke="rgba(255,255,255,0.14)"/>
    <path d="M220 250c160-160 320-160 480 0" fill="none" stroke="rgba(231,238,248,0.22)" stroke-width="16" stroke-linecap="round"/>
    <circle cx="240" cy="420" r="78" fill="rgba(0,0,0,0.35)" stroke="rgba(255,255,255,0.18)" stroke-width="12"/>
    <circle cx="240" cy="420" r="28" fill="#0B2442" stroke="rgba(231,238,248,0.4)" stroke-width="10"/>
    <circle cx="620" cy="420" r="60" fill="rgba(0,0,0,0.35)" stroke="rgba(255,255,255,0.18)" stroke-width="12"/>
    <circle cx="620" cy="420" r="22" fill="#0B2442" stroke="rgba(231,238,248,0.4)" stroke-width="10"/>
  </g>
  <g font-family="Inter, Arial, sans-serif" fill="#E7EEF8">
    <text x="90" y="110" font-size="26" opacity="0.85">Export-ready machinery for overseas B2B buyers</text>
  </g>
</svg>
